<?xml version="1.0" encoding="utf-8"?>
<!-- Designed by Vexels.com - 2016 All Rights Reserved - https://vexels.com/terms-and-conditions/  -->

<svg version="1.1" id="Layer_1" xmlns="http://www.w3.org/2000/svg" xmlns:xlink="http://www.w3.org/1999/xlink" x="0px" y="0px"
	 width="1200px" height="1200px" viewBox="0 0 1200 1200" enable-background="new 0 0 1200 1200" xml:space="preserve">
<g>
	<polygon fill="#808D90" points="640.606,1088.501 604.616,1109.284 604.616,1080.392 640.606,1059.609 	"/>
	<polygon fill="#A3D3B9" points="640.606,1059.615 604.616,1080.392 604.616,1068.027 640.606,1047.25 	"/>
	<polygon fill="#808D90" points="680.905,1065.233 644.916,1086.016 644.916,1057.13 680.905,1036.347 	"/>
	<path fill="#B34821" d="M668.368,1034.296c0,3.49-2.461,7.746-5.505,9.506c-3.044,1.759-5.511,0.351-5.511-3.145
		c0-3.49,2.467-7.746,5.511-9.506C665.907,1029.392,668.368,1030.801,668.368,1034.296"/>
	<g>
		<polygon fill="#BFB8AC" points="319.896,988.777 600.853,826.568 880.104,987.79 599.147,1150 		"/>
		<polygon fill="#FEF291" points="599.147,363.421 388.915,242.04 600.853,119.684 811.079,241.065 		"/>
		<polygon fill="#F3AC49" points="600.051,1111.698 391.948,991.548 391.948,241.552 600.051,361.703 		"/>
		<polygon fill="#FEF291" points="600.051,365.644 391.948,245.494 391.948,241.552 600.051,361.703 		"/>
		<polygon fill="#E98442" points="600.051,369.58 391.948,249.43 391.948,245.494 600.051,365.644 		"/>
		<polygon fill="#A5D9E9" points="420.999,303.034 404.491,293.499 404.491,266.901 420.999,276.437 		"/>
		<polygon fill="#A5D9E9" points="444.785,316.766 428.282,307.237 428.282,280.634 444.785,290.169 		"/>
		<polygon fill="#A5D9E9" points="468.576,330.499 452.067,320.969 452.067,294.366 468.576,303.901 		"/>
		<polygon fill="#A5D9E9" points="492.367,344.237 475.852,334.708 475.852,308.099 492.367,317.634 		"/>
		<polygon fill="#A5D9E9" points="516.152,357.97 499.643,348.44 499.643,321.831 516.152,331.367 		"/>
		<polygon fill="#A5D9E9" points="539.937,371.708 523.434,362.172 523.434,335.57 539.937,345.099 		"/>
		<polygon fill="#A5D9E9" points="563.728,385.441 547.219,375.905 547.219,349.308 563.728,358.837 		"/>
		<polygon fill="#A5D9E9" points="587.519,399.173 571.004,389.637 571.004,363.041 587.519,372.57 		"/>
		<polygon fill="#FEF291" points="600.051,422.94 391.948,302.79 391.948,298.849 600.051,419.004 		"/>
		<polygon fill="#E98442" points="600.051,426.876 391.948,306.732 391.948,302.79 600.051,422.94 		"/>
		<polygon fill="#A5D9E9" points="420.999,360.33 404.491,350.8 404.491,324.197 420.999,333.732 		"/>
		<polygon fill="#A5D9E9" points="444.785,374.068 428.282,364.533 428.282,337.93 444.785,347.465 		"/>
		<polygon fill="#A5D9E9" points="468.576,387.801 452.067,378.271 452.067,351.662 468.576,361.197 		"/>
		<polygon fill="#A5D9E9" points="492.367,401.539 475.852,392.004 475.852,365.401 492.367,374.93 		"/>
		<polygon fill="#A5D9E9" points="516.152,415.272 499.643,405.736 499.643,379.133 516.152,388.668 		"/>
		<polygon fill="#A5D9E9" points="539.937,429.004 523.434,419.468 523.434,392.872 539.937,402.401 		"/>
		<polygon fill="#A5D9E9" points="563.728,442.736 547.219,433.201 547.219,406.604 563.728,416.134 		"/>
		<polygon fill="#A5D9E9" points="587.519,456.469 571.004,446.939 571.004,420.336 587.519,429.872 		"/>
		<polygon fill="#FEF291" points="600.051,480.236 391.948,360.092 391.948,356.15 600.051,476.3 		"/>
		<polygon fill="#E98442" points="600.051,484.171 391.948,364.027 391.948,360.092 600.051,480.236 		"/>
		<polygon fill="#A5D9E9" points="420.999,417.632 404.491,408.102 404.491,381.493 420.999,391.028 		"/>
		<polygon fill="#A5D9E9" points="444.785,431.37 428.282,421.835 428.282,395.232 444.785,404.761 		"/>
		<polygon fill="#A5D9E9" points="468.576,445.102 452.067,435.567 452.067,408.964 468.576,418.494 		"/>
		<polygon fill="#A5D9E9" points="492.367,458.835 475.852,449.299 475.852,422.703 492.367,432.232 		"/>
		<polygon fill="#A5D9E9" points="516.152,472.567 499.643,463.032 499.643,436.435 516.152,445.964 		"/>
		<polygon fill="#A5D9E9" points="539.937,486.3 523.434,476.764 523.434,450.167 539.937,459.703 		"/>
		<polygon fill="#A5D9E9" points="563.728,500.032 547.219,490.503 547.219,463.9 563.728,473.435 		"/>
		<polygon fill="#A5D9E9" points="587.519,513.77 571.004,504.241 571.004,477.632 587.519,487.168 		"/>
		<polygon fill="#FEF291" points="600.051,537.538 391.948,417.388 391.948,413.452 600.051,533.597 		"/>
		<polygon fill="#E98442" points="600.051,541.473 391.948,421.323 391.948,417.388 600.051,537.532 		"/>
		<polygon fill="#A5D9E9" points="420.999,474.933 404.491,465.398 404.491,438.795 420.999,448.324 		"/>
		<polygon fill="#A5D9E9" points="444.785,488.666 428.282,479.13 428.282,452.534 444.785,462.063 		"/>
		<polygon fill="#A5D9E9" points="468.576,502.398 452.067,492.863 452.067,466.266 468.576,475.795 		"/>
		<polygon fill="#A5D9E9" points="492.367,516.131 475.852,506.595 475.852,479.998 492.367,489.534 		"/>
		<polygon fill="#A5D9E9" points="516.152,529.863 499.643,520.333 499.643,493.731 516.152,503.266 		"/>
		<polygon fill="#A5D9E9" points="539.937,543.601 523.434,534.066 523.434,507.463 539.937,516.999 		"/>
		<polygon fill="#A5D9E9" points="563.728,557.334 547.219,547.804 547.219,521.195 563.728,530.731 		"/>
		<polygon fill="#A5D9E9" points="587.519,571.072 571.004,561.537 571.004,534.934 587.519,544.463 		"/>
		<polygon fill="#FEF291" points="600.051,594.84 391.948,474.683 391.948,470.748 600.051,590.898 		"/>
		<polygon fill="#E98442" points="600.051,598.775 391.948,478.625 391.948,474.683 600.051,594.834 		"/>
		<polygon fill="#A5D9E9" points="420.999,532.229 404.491,522.693 404.491,496.097 420.999,505.626 		"/>
		<polygon fill="#A5D9E9" points="444.785,545.962 428.282,536.426 428.282,509.829 444.785,519.359 		"/>
		<polygon fill="#A5D9E9" points="468.576,559.694 452.067,550.164 452.067,523.562 468.576,533.097 		"/>
		<polygon fill="#A5D9E9" points="492.367,573.426 475.852,563.897 475.852,537.294 492.367,546.83 		"/>
		<polygon fill="#A5D9E9" points="516.152,587.165 499.643,577.635 499.643,551.026 516.152,560.562 		"/>
		<polygon fill="#A5D9E9" points="539.937,600.903 523.434,591.368 523.434,564.765 539.937,574.294 		"/>
		<polygon fill="#A5D9E9" points="563.728,614.636 547.219,605.101 547.219,578.497 563.728,588.027 		"/>
		<polygon fill="#A5D9E9" points="587.519,628.368 571.004,618.833 571.004,592.236 587.519,601.765 		"/>
		<polygon fill="#FEF291" points="600.051,652.135 391.948,531.985 391.948,528.044 600.051,648.194 		"/>
		<polygon fill="#E98442" points="600.051,656.071 391.948,535.927 391.948,531.985 600.051,652.135 		"/>
		<polygon fill="#A5D9E9" points="420.999,589.525 404.491,579.995 404.491,553.393 420.999,562.928 		"/>
		<polygon fill="#A5D9E9" points="444.785,603.257 428.282,593.728 428.282,567.125 444.785,576.661 		"/>
		<polygon fill="#A5D9E9" points="468.576,616.996 452.067,607.466 452.067,580.857 468.576,590.393 		"/>
		<polygon fill="#A5D9E9" points="492.367,630.728 475.852,621.199 475.852,594.596 492.367,604.125 		"/>
		<polygon fill="#A5D9E9" points="516.152,644.466 499.643,634.931 499.643,608.328 516.152,617.858 		"/>
		<polygon fill="#A5D9E9" points="539.937,658.199 523.434,648.664 523.434,622.061 539.937,631.596 		"/>
		<polygon fill="#A5D9E9" points="563.728,671.932 547.219,662.396 547.219,635.799 563.728,645.328 		"/>
		<polygon fill="#A5D9E9" points="587.519,685.664 571.004,676.129 571.004,649.532 587.519,659.067 		"/>
		<polygon fill="#FEF291" points="600.051,709.431 391.948,589.287 391.948,585.346 600.051,705.496 		"/>
		<polygon fill="#E98442" points="600.051,713.367 391.948,593.223 391.948,589.287 600.051,709.431 		"/>
		<polygon fill="#A5D9E9" points="420.999,646.827 404.491,637.291 404.491,610.688 420.999,620.224 		"/>
		<polygon fill="#A5D9E9" points="444.785,660.559 428.282,651.03 428.282,624.421 444.785,633.956 		"/>
		<polygon fill="#A5D9E9" points="468.576,674.297 452.067,664.762 452.067,638.159 468.576,647.689 		"/>
		<polygon fill="#A5D9E9" points="492.367,688.03 475.852,678.495 475.852,651.892 492.367,661.421 		"/>
		<polygon fill="#A5D9E9" points="516.152,701.763 499.643,692.228 499.643,665.63 516.152,675.159 		"/>
		<polygon fill="#A5D9E9" points="539.937,715.495 523.434,705.96 523.434,679.363 539.937,688.892 		"/>
		<polygon fill="#A5D9E9" points="563.728,729.228 547.219,719.698 547.219,693.095 563.728,702.63 		"/>
		<polygon fill="#A5D9E9" points="587.519,742.96 571.004,733.431 571.004,706.828 587.519,716.363 		"/>
		<polygon fill="#FEF291" points="600.051,766.727 391.948,646.583 391.948,642.648 600.051,762.792 		"/>
		<polygon fill="#E98442" points="600.051,770.669 391.948,650.519 391.948,646.583 600.051,766.727 		"/>
		<polygon fill="#A5D9E9" points="420.999,704.123 404.491,694.593 404.491,667.99 420.999,677.52 		"/>
		<polygon fill="#A5D9E9" points="444.785,717.861 428.282,708.326 428.282,681.723 444.785,691.252 		"/>
		<polygon fill="#A5D9E9" points="468.576,731.593 452.067,722.058 452.067,695.461 468.576,704.99 		"/>
		<polygon fill="#A5D9E9" points="492.367,745.326 475.852,735.791 475.852,709.194 492.367,718.723 		"/>
		<polygon fill="#A5D9E9" points="516.152,759.059 499.643,749.529 499.643,722.926 516.152,732.461 		"/>
		<polygon fill="#A5D9E9" points="539.937,772.791 523.434,763.262 523.434,736.659 539.937,746.194 		"/>
		<polygon fill="#A5D9E9" points="563.728,786.53 547.219,777 547.219,750.391 563.728,759.926 		"/>
		<polygon fill="#A5D9E9" points="587.519,800.262 571.004,790.732 571.004,764.124 587.519,773.659 		"/>
		<polygon fill="#FEF291" points="600.051,824.029 391.948,703.879 391.948,699.943 600.051,820.088 		"/>
		<polygon fill="#E98442" points="600.051,827.971 391.948,707.814 391.948,703.879 600.051,824.029 		"/>
		<polygon fill="#A5D9E9" points="420.999,761.424 404.491,751.889 404.491,725.286 420.999,734.822 		"/>
		<polygon fill="#A5D9E9" points="444.785,775.157 428.282,765.622 428.282,739.025 444.785,748.554 		"/>
		<polygon fill="#A5D9E9" points="468.576,788.89 452.067,779.354 452.067,752.757 468.576,762.292 		"/>
		<polygon fill="#A5D9E9" points="492.367,802.622 475.852,793.093 475.852,766.49 492.367,776.025 		"/>
		<polygon fill="#A5D9E9" points="516.152,816.361 499.643,806.825 499.643,780.222 516.152,789.757 		"/>
		<polygon fill="#A5D9E9" points="539.937,830.093 523.434,820.563 523.434,793.955 539.937,803.49 		"/>
		<polygon fill="#A5D9E9" points="563.728,843.826 547.219,834.296 547.219,807.693 563.728,817.223 		"/>
		<polygon fill="#A5D9E9" points="587.519,857.564 571.004,848.028 571.004,821.425 587.519,830.955 		"/>
		<polygon fill="#FEF291" points="600.051,881.331 391.948,761.181 391.948,757.239 600.051,877.389 		"/>
		<polygon fill="#E98442" points="600.051,885.266 391.948,765.116 391.948,761.175 600.051,881.331 		"/>
		<polygon fill="#A5D9E9" points="420.999,818.72 404.491,809.185 404.491,782.588 420.999,792.123 		"/>
		<polygon fill="#A5D9E9" points="444.785,832.453 428.282,822.924 428.282,796.321 444.785,805.856 		"/>
		<polygon fill="#A5D9E9" points="468.576,846.186 452.067,836.656 452.067,810.053 468.576,819.588 		"/>
		<polygon fill="#A5D9E9" points="492.367,859.924 475.852,850.394 475.852,823.786 492.367,833.321 		"/>
		<polygon fill="#A5D9E9" points="516.152,873.656 499.643,864.127 499.643,837.524 516.152,847.053 		"/>
		<polygon fill="#A5D9E9" points="539.937,887.395 523.434,877.859 523.434,851.256 539.937,860.786 		"/>
		<polygon fill="#A5D9E9" points="563.728,901.127 547.219,891.592 547.219,864.995 563.728,874.524 		"/>
		<polygon fill="#A5D9E9" points="587.519,914.859 571.004,905.324 571.004,878.727 587.519,888.257 		"/>
		<polygon fill="#FEF291" points="600.051,938.627 391.948,818.477 391.948,814.535 600.051,934.691 		"/>
		<polygon fill="#E98442" points="600.051,942.562 391.948,822.418 391.948,818.477 600.051,938.627 		"/>
		<polygon fill="#A5D9E9" points="420.999,876.017 404.491,866.487 404.491,839.884 420.999,849.419 		"/>
		<polygon fill="#A5D9E9" points="444.785,889.755 428.282,880.219 428.282,853.617 444.785,863.152 		"/>
		<polygon fill="#A5D9E9" points="468.576,903.487 452.067,893.958 452.067,867.349 468.576,876.884 		"/>
		<polygon fill="#A5D9E9" points="492.367,917.226 475.852,907.69 475.852,881.087 492.367,890.617 		"/>
		<polygon fill="#A5D9E9" points="516.152,930.958 499.643,921.422 499.643,894.82 516.152,904.355 		"/>
		<polygon fill="#A5D9E9" points="539.937,944.69 523.434,935.155 523.434,908.558 539.937,918.088 		"/>
		<polygon fill="#A5D9E9" points="563.728,958.423 547.219,948.888 547.219,922.29 563.728,931.826 		"/>
		<polygon fill="#A5D9E9" points="587.519,972.155 571.004,962.626 571.004,936.023 587.519,945.559 		"/>
		<polygon fill="#FEF291" points="600.051,995.923 391.948,875.779 391.948,871.837 600.051,991.987 		"/>
		<polygon fill="#E98442" points="600.051,999.864 391.948,879.714 391.948,875.779 600.051,995.923 		"/>
		<polygon fill="#FEF291" points="463.083,984.83 438.031,970.372 438.031,966.431 463.083,980.894 		"/>
		<polygon fill="#E98442" points="463.083,988.771 438.031,974.307 438.031,970.372 463.083,984.83 		"/>
		<polygon fill="#FEF291" points="547.213,1033.41 522.269,1019.006 522.269,1015.065 547.213,1029.475 		"/>
		<polygon fill="#E98442" points="547.213,1037.346 522.269,1022.948 522.269,1019.006 547.213,1033.41 		"/>
		<polygon fill="#FEF291" points="512.817,987.053 472.998,964.058 472.998,960.123 492.908,952.758 512.817,983.118 		"/>
		<polygon fill="#E98442" points="512.817,990.989 472.998,968 472.998,964.058 512.817,987.053 		"/>
		<polygon fill="#9A8376" points="512.353,1060.341 472.998,1037.619 472.998,968 512.353,990.721 		"/>
		<polygon fill="#9A8376" points="463.083,1031.895 438.709,1017.823 438.709,974.7 463.083,988.771 		"/>
		<polygon fill="#9A8376" points="546.649,1080.143 522.269,1066.072 522.269,1022.948 546.649,1037.019 		"/>
		<polygon fill="#E98442" points="808.107,991.797 600.003,1111.947 600.003,361.947 808.107,241.803 		"/>
		<polygon fill="#F3AC49" points="808.107,245.738 600.003,365.888 600.003,361.947 808.107,241.803 		"/>
		<polygon fill="#B8591B" points="808.107,249.673 600.003,369.823 600.003,365.888 808.107,245.738 		"/>
		<polygon fill="#F3AC49" points="808.107,303.034 600.003,423.19 600.003,419.249 808.107,299.098 		"/>
		<polygon fill="#B8591B" points="808.107,306.975 600.003,427.125 600.003,423.19 808.107,303.034 		"/>
		<polygon fill="#F3AC49" points="808.107,360.335 600.003,480.485 600.003,476.544 808.107,356.394 		"/>
		<polygon fill="#B8591B" points="808.107,364.277 600.003,484.421 600.003,480.485 808.107,360.335 		"/>
		<polygon fill="#F3AC49" points="808.107,417.637 600.003,537.782 600.003,533.846 808.107,413.696 		"/>
		<polygon fill="#B8591B" points="808.107,421.573 600.003,541.717 600.003,537.782 808.107,417.637 		"/>
		<polygon fill="#F3AC49" points="808.107,474.933 600.003,595.078 600.003,591.142 808.107,470.998 		"/>
		<polygon fill="#B8591B" points="808.107,478.869 600.003,599.019 600.003,595.078 808.107,474.933 		"/>
		<polygon fill="#F3AC49" points="808.107,532.229 600.003,652.38 600.003,648.438 808.107,528.294 		"/>
		<polygon fill="#B8591B" points="808.107,536.17 600.003,656.321 600.003,652.38 808.107,532.229 		"/>
		<polygon fill="#F3AC49" points="808.107,589.531 600.003,709.681 600.003,705.74 808.107,585.59 		"/>
		<polygon fill="#B8591B" points="808.107,593.472 600.003,713.616 600.003,709.681 808.107,589.531 		"/>
		<polygon fill="#F3AC49" points="808.107,646.833 600.003,766.977 600.003,763.042 808.107,642.892 		"/>
		<polygon fill="#B8591B" points="808.107,650.768 600.003,770.912 600.003,766.977 808.107,646.827 		"/>
		<polygon fill="#F3AC49" points="808.107,704.129 600.003,824.273 600.003,820.338 808.107,700.193 		"/>
		<polygon fill="#B8591B" points="808.107,708.064 600.003,828.214 600.003,824.273 808.107,704.129 		"/>
		<polygon fill="#F3AC49" points="808.107,761.424 600.003,881.574 600.003,877.633 808.107,757.489 		"/>
		<polygon fill="#B8591B" points="808.107,765.36 600.003,885.516 600.003,881.574 808.107,761.424 		"/>
		<polygon fill="#F3AC49" points="808.107,818.72 600.003,938.876 600.003,934.935 808.107,814.785 		"/>
		<polygon fill="#B8591B" points="808.107,822.662 600.003,942.812 600.003,938.876 808.107,818.72 		"/>
		<polygon fill="#F3AC49" points="808.107,875.945 600.003,996.095 600.003,992.154 808.107,872.01 		"/>
		<polygon fill="#B8591B" points="808.107,879.886 600.003,1000.036 600.003,996.095 808.107,875.945 		"/>
		<polygon fill="#84BDC0" points="629.049,389.887 612.541,399.422 612.541,372.819 629.049,363.284 		"/>
		<polygon fill="#84BDC0" points="652.84,376.155 636.326,385.69 636.326,359.081 652.84,349.552 		"/>
		<polygon fill="#84BDC0" points="676.625,362.422 660.117,371.951 660.117,345.349 676.625,335.813 		"/>
		<polygon fill="#84BDC0" points="700.411,348.684 683.908,358.219 683.908,331.616 700.411,322.081 		"/>
		<polygon fill="#84BDC0" points="724.202,334.951 707.693,344.481 707.693,317.884 724.202,308.348 		"/>
		<polygon fill="#84BDC0" points="747.993,321.219 731.478,330.748 731.478,304.152 747.993,294.616 		"/>
		<polygon fill="#84BDC0" points="771.778,307.48 755.269,317.016 755.269,290.413 771.778,280.884 		"/>
		<polygon fill="#84BDC0" points="795.563,293.748 779.06,303.284 779.06,276.681 795.563,267.151 		"/>
		<polygon fill="#84BDC0" points="629.049,447.183 612.541,456.719 612.541,430.115 629.049,420.586 		"/>
		<polygon fill="#84BDC0" points="652.84,433.451 636.326,442.986 636.326,416.383 652.84,406.853 		"/>
		<polygon fill="#84BDC0" points="676.625,419.718 660.117,429.253 660.117,402.644 676.625,393.115 		"/>
		<polygon fill="#84BDC0" points="700.411,405.986 683.908,415.515 683.908,388.912 700.411,379.382 		"/>
		<polygon fill="#84BDC0" points="724.202,392.253 707.693,401.782 707.693,375.18 724.202,365.644 		"/>
		<polygon fill="#84BDC0" points="747.993,378.515 731.478,388.05 731.478,361.447 747.993,351.912 		"/>
		<polygon fill="#84BDC0" points="771.778,364.782 755.269,374.311 755.269,347.715 771.778,338.179 		"/>
		<polygon fill="#84BDC0" points="795.563,351.044 779.06,360.579 779.06,333.982 795.563,324.447 		"/>
		<polygon fill="#84BDC0" points="629.049,504.485 612.541,514.015 612.541,487.417 629.049,477.882 		"/>
		<polygon fill="#84BDC0" points="652.84,490.746 636.326,500.282 636.326,473.685 652.84,464.15 		"/>
		<polygon fill="#84BDC0" points="676.625,477.014 660.117,486.549 660.117,459.946 676.625,450.417 		"/>
		<polygon fill="#84BDC0" points="700.411,463.282 683.908,472.817 683.908,446.214 700.411,436.679 		"/>
		<polygon fill="#84BDC0" points="724.202,449.549 707.693,459.084 707.693,432.475 724.202,422.946 		"/>
		<polygon fill="#84BDC0" points="747.993,435.817 731.478,445.346 731.478,418.743 747.993,409.208 		"/>
		<polygon fill="#84BDC0" points="771.778,422.084 755.269,431.613 755.269,405.011 771.778,395.475 		"/>
		<polygon fill="#84BDC0" points="795.563,408.346 779.06,417.875 779.06,391.279 795.563,381.742 		"/>
		<polygon fill="#84BDC0" points="629.049,561.787 612.541,571.316 612.541,544.713 629.049,535.178 		"/>
		<polygon fill="#84BDC0" points="652.84,548.048 636.326,557.578 636.326,530.981 652.84,521.446 		"/>
		<polygon fill="#84BDC0" points="676.625,534.316 660.117,543.846 660.117,517.248 676.625,507.713 		"/>
		<polygon fill="#84BDC0" points="700.411,520.577 683.908,530.113 683.908,503.516 700.411,493.98 		"/>
		<polygon fill="#84BDC0" points="724.202,506.845 707.693,516.38 707.693,489.777 724.202,480.248 		"/>
		<polygon fill="#84BDC0" points="747.993,493.113 731.478,502.648 731.478,476.045 747.993,466.509 		"/>
		<polygon fill="#84BDC0" points="771.778,479.38 755.269,488.915 755.269,462.306 771.778,452.777 		"/>
		<polygon fill="#84BDC0" points="795.563,465.647 779.06,475.177 779.06,448.574 795.563,439.039 		"/>
		<polygon fill="#84BDC0" points="629.049,619.082 612.541,628.618 612.541,602.009 629.049,592.48 		"/>
		<polygon fill="#84BDC0" points="652.84,605.35 636.326,614.88 636.326,588.277 652.84,578.741 		"/>
		<polygon fill="#84BDC0" points="676.625,591.618 660.117,601.147 660.117,574.544 676.625,565.009 		"/>
		<polygon fill="#84BDC0" points="700.411,577.879 683.908,587.409 683.908,560.812 700.411,551.277 		"/>
		<polygon fill="#84BDC0" points="724.202,564.147 707.693,573.676 707.693,547.079 724.202,537.544 		"/>
		<polygon fill="#84BDC0" points="747.993,550.408 731.478,559.944 731.478,533.346 747.993,523.811 		"/>
		<polygon fill="#84BDC0" points="771.778,536.676 755.269,546.211 755.269,519.608 771.778,510.079 		"/>
		<polygon fill="#84BDC0" points="795.563,522.944 779.06,532.479 779.06,505.87 795.563,496.34 		"/>
		<polygon fill="#84BDC0" points="629.049,676.378 612.541,685.914 612.541,659.311 629.049,649.781 		"/>
		<polygon fill="#84BDC0" points="652.84,662.646 636.326,672.182 636.326,645.579 652.84,636.043 		"/>
		<polygon fill="#84BDC0" points="676.625,648.913 660.117,658.449 660.117,631.84 676.625,622.311 		"/>
		<polygon fill="#84BDC0" points="700.411,635.181 683.908,644.711 683.908,618.108 700.411,608.572 		"/>
		<polygon fill="#84BDC0" points="724.202,621.443 707.693,630.978 707.693,604.375 724.202,594.84 		"/>
		<polygon fill="#84BDC0" points="747.993,607.71 731.478,617.24 731.478,590.643 747.993,581.107 		"/>
		<polygon fill="#84BDC0" points="771.778,593.972 755.269,603.507 755.269,576.91 771.778,567.375 		"/>
		<polygon fill="#84BDC0" points="795.563,580.24 779.06,589.775 779.06,563.172 795.563,553.642 		"/>
		<polygon fill="#84BDC0" points="629.049,733.674 612.541,743.21 612.541,716.613 629.049,707.077 		"/>
		<polygon fill="#84BDC0" points="652.84,719.942 636.326,729.477 636.326,702.875 652.84,693.345 		"/>
		<polygon fill="#84BDC0" points="676.625,706.209 660.117,715.745 660.117,689.142 676.625,679.612 		"/>
		<polygon fill="#84BDC0" points="700.411,692.477 683.908,702.013 683.908,675.404 700.411,665.874 		"/>
		<polygon fill="#84BDC0" points="724.202,678.744 707.693,688.28 707.693,661.671 724.202,652.142 		"/>
		<polygon fill="#84BDC0" points="747.993,665.012 731.478,674.542 731.478,647.939 747.993,638.403 		"/>
		<polygon fill="#84BDC0" points="771.778,651.273 755.269,660.803 755.269,634.206 771.778,624.671 		"/>
		<polygon fill="#84BDC0" points="795.563,637.541 779.06,647.071 779.06,620.473 795.563,610.938 		"/>
		<polygon fill="#84BDC0" points="629.049,790.976 612.541,800.511 612.541,773.909 629.049,764.373 		"/>
		<polygon fill="#84BDC0" points="652.84,777.244 636.326,786.773 636.326,760.176 652.84,750.641 		"/>
		<polygon fill="#84BDC0" points="676.625,763.505 660.117,773.04 660.117,746.444 676.625,736.908 		"/>
		<polygon fill="#84BDC0" points="700.411,749.773 683.908,759.308 683.908,732.706 700.411,723.176 		"/>
		<polygon fill="#84BDC0" points="724.202,736.04 707.693,745.576 707.693,718.973 724.202,709.437 		"/>
		<polygon fill="#84BDC0" points="747.993,722.308 731.478,731.844 731.478,705.235 747.993,695.705 		"/>
		<polygon fill="#84BDC0" points="771.778,708.575 755.269,718.105 755.269,691.502 771.778,681.966 		"/>
		<polygon fill="#84BDC0" points="795.563,694.843 779.06,704.373 779.06,677.77 795.563,668.234 		"/>
		<polygon fill="#84BDC0" points="629.049,848.278 612.541,857.807 612.541,831.204 629.049,821.669 		"/>
		<polygon fill="#84BDC0" points="652.84,834.546 636.326,844.075 636.326,817.472 652.84,807.937 		"/>
		<polygon fill="#84BDC0" points="676.625,820.807 660.117,830.337 660.117,803.74 676.625,794.204 		"/>
		<polygon fill="#84BDC0" points="700.411,807.075 683.908,816.604 683.908,790.007 700.411,780.471 		"/>
		<polygon fill="#84BDC0" points="724.202,793.336 707.693,802.871 707.693,776.275 724.202,766.739 		"/>
		<polygon fill="#84BDC0" points="747.993,779.604 731.478,789.139 731.478,762.536 747.993,753.007 		"/>
		<polygon fill="#84BDC0" points="771.778,765.871 755.269,775.407 755.269,748.798 771.778,739.268 		"/>
		<polygon fill="#84BDC0" points="795.563,752.139 779.06,761.675 779.06,735.066 795.563,725.536 		"/>
		<polygon fill="#84BDC0" points="629.049,905.574 612.541,915.109 612.541,888.506 629.049,878.971 		"/>
		<polygon fill="#84BDC0" points="652.84,891.842 636.326,901.377 636.326,874.768 652.84,865.238 		"/>
		<polygon fill="#84BDC0" points="676.625,878.109 660.117,887.638 660.117,861.035 676.625,851.5 		"/>
		<polygon fill="#84BDC0" points="700.411,864.371 683.908,873.906 683.908,847.303 700.411,837.768 		"/>
		<polygon fill="#84BDC0" points="724.202,850.638 707.693,860.167 707.693,833.571 724.202,824.035 		"/>
		<polygon fill="#84BDC0" points="747.993,836.906 731.478,846.435 731.478,819.838 747.993,810.302 		"/>
		<polygon fill="#84BDC0" points="771.778,823.167 755.269,832.702 755.269,806.1 771.778,796.57 		"/>
		<polygon fill="#84BDC0" points="795.563,809.435 779.06,818.97 779.06,792.367 795.563,782.838 		"/>
		<polygon fill="#84BDC0" points="629.049,962.87 612.541,972.405 612.541,945.802 629.049,936.273 		"/>
		<polygon fill="#84BDC0" points="652.84,949.137 636.326,958.673 636.326,932.07 652.84,922.54 		"/>
		<polygon fill="#84BDC0" points="676.625,935.405 660.117,944.94 660.117,918.331 676.625,908.802 		"/>
		<polygon fill="#84BDC0" points="700.411,921.673 683.908,931.208 683.908,904.599 700.411,895.069 		"/>
		<polygon fill="#84BDC0" points="724.202,907.94 707.693,917.469 707.693,890.866 724.202,881.331 		"/>
		<polygon fill="#84BDC0" points="747.993,894.202 731.478,903.737 731.478,877.134 747.993,867.598 		"/>
		<polygon fill="#84BDC0" points="771.778,880.469 755.269,889.998 755.269,863.402 771.778,853.866 		"/>
		<polygon fill="#84BDC0" points="795.563,866.731 779.06,876.266 779.06,849.669 795.563,840.133 		"/>
		<polygon fill="#58575A" points="761.499,989.811 725.516,1010.595 725.516,1004.305 761.499,983.522 		"/>
		<polygon fill="#EFC08A" points="716.533,1013.644 689.888,1029.023 689.888,1020.772 716.533,1005.387 		"/>
		<polygon fill="#808D90" points="721.206,1041.971 685.216,1062.754 685.216,1033.862 721.206,1013.08 		"/>
		<polygon fill="#808D90" points="761.499,1018.703 725.516,1039.486 725.516,1010.595 761.499,989.811 		"/>
		<polygon fill="#808D90" points="801.805,995.435 765.815,1016.218 765.815,987.326 801.805,966.544 		"/>
		<polygon fill="#FEF291" points="711.878,118.674 592.935,50 481.024,114.614 599.968,183.288 		"/>
		<polygon fill="#E98442" points="711.878,118.674 599.968,183.288 599.968,313.568 711.878,247.89 		"/>
		<polygon fill="#F3AC49" points="599.968,184.346 481.024,115.672 481.024,244.894 599.968,313.568 		"/>
		<polygon fill="#F3AC49" points="599.968,187.253 481.024,118.579 481.024,114.649 599.968,183.317 		"/>
		<polygon fill="#E98442" points="599.968,191.188 481.024,122.52 481.024,118.591 599.968,187.253 		"/>
		<polygon fill="#E98442" points="599.968,187.253 711.872,122.52 711.872,118.579 599.968,183.317 		"/>
		<polygon fill="#B8591B" points="599.968,191.188 711.872,126.462 711.872,122.52 599.968,187.253 		"/>
		<polygon fill="#A5D9E9" points="513.072,181.285 496.564,171.749 496.564,145.152 513.072,154.687 		"/>
		<polygon fill="#A5D9E9" points="536.858,195.017 520.355,185.487 520.355,158.885 536.858,168.42 		"/>
		<polygon fill="#A5D9E9" points="560.649,208.75 544.14,199.22 544.14,172.617 560.649,182.152 		"/>
		<polygon fill="#A5D9E9" points="584.44,222.488 567.925,212.958 567.925,186.349 584.44,195.885 		"/>
		<polygon fill="#A5D9E9" points="513.072,222.048 496.564,212.518 496.564,185.909 513.072,195.445 		"/>
		<polygon fill="#A5D9E9" points="536.858,235.786 520.355,226.251 520.355,199.648 536.858,209.177 		"/>
		<polygon fill="#A5D9E9" points="560.649,249.518 544.14,239.983 544.14,213.38 560.649,222.916 		"/>
		<polygon fill="#A5D9E9" points="584.44,263.251 567.925,253.716 567.925,227.119 584.44,236.648 		"/>
		<polygon fill="#FEF291" points="704.025,252.931 690.513,245.131 697.272,241.22 710.785,249.013 		"/>
		<polygon fill="#E98442" points="704.025,268.554 704.025,252.955 710.785,249.037 710.785,264.642 		"/>
		<polygon fill="#F3AC49" points="690.519,260.707 690.519,245.102 704.12,252.955 704.12,268.554 		"/>
		<polygon fill="#FEF291" points="687.142,262.71 673.624,254.911 680.383,250.999 693.895,258.793 		"/>
		<polygon fill="#E98442" points="687.142,278.339 687.142,262.734 693.895,258.816 693.895,274.422 		"/>
		<polygon fill="#F3AC49" points="673.624,270.486 673.624,254.881 687.225,262.74 687.225,278.339 		"/>
		<polygon fill="#FEF291" points="670.247,272.49 656.734,264.69 663.493,260.778 677.006,268.578 		"/>
		<polygon fill="#E98442" points="670.247,288.118 670.247,272.513 677.006,268.601 677.006,284.201 		"/>
		<polygon fill="#F3AC49" points="656.74,280.265 656.74,264.666 670.336,272.519 670.336,288.112 		"/>
		<polygon fill="#FEF291" points="653.363,282.275 639.845,274.475 646.598,270.563 660.117,278.363 		"/>
		<polygon fill="#E98442" points="653.363,297.897 653.363,282.298 660.117,278.386 660.117,293.986 		"/>
		<polygon fill="#F3AC49" points="639.845,290.05 639.845,274.445 653.441,282.298 653.441,297.897 		"/>
		<polygon fill="#FEF291" points="636.468,292.053 622.956,284.26 629.715,280.342 643.228,288.142 		"/>
		<polygon fill="#E98442" points="636.468,307.682 636.468,292.078 643.228,288.166 643.228,303.771 		"/>
		<polygon fill="#F3AC49" points="622.962,299.83 622.962,284.224 636.552,292.083 636.552,307.677 		"/>
	</g>
</g>
</svg>
